<?xml version="1.0" encoding="windows-1252"?>
<!-- Generator: Adobe Illustrator 16.0.0, SVG Export Plug-In . SVG Version: 6.00 Build 0)  -->
<!DOCTYPE svg PUBLIC "-//W3C//DTD SVG 1.1//EN" "http://www.w3.org/Graphics/SVG/1.1/DTD/svg11.dtd">
<svg version="1.1" id="Capa_1" xmlns="http://www.w3.org/2000/svg" xmlns:xlink="http://www.w3.org/1999/xlink" x="0px" y="0px" width="886.075px" height="886.075px" viewBox="0 0 886.075 886.075" style="enable-background:new 0 0 886.075 886.075;" xml:space="preserve">
<g>
	<g>
		<path d="M146.729,819.94c-13.167,19.252-8.107,45.626,11.249,58.793c19.318,13.158,45.653,8.153,58.762-11.222    c6.566-9.592,72.779-106.505,137.149-201.093l-51.372-74.999C228.235,700.551,151.64,812.642,146.729,819.94z"/>
		<path d="M266.739,76.551c0,42.342,34.312,76.644,76.637,76.644c42.305,0,76.595-34.302,76.595-76.644    C419.971,34.256,385.681,0,343.376,0C301.051,0,266.739,34.255,266.739,76.551z"/>
		<path d="M727.147,503.682h-59.859V472.97c0-8.284-6.717-15-15-15h-31.868c0.821-7.305-0.869-14.922-5.363-21.49    c-5.7-8.276-161.169-234.389-161.169-234.389c-11.663-16.92-28.009-24.424-45.747-24.424H287.225    c-15.123,0-32.015,6.264-42.172,20.127c0,0-72.441,99.168-88.561,121.121c-4.76,6.479-6.62,14.173-6.039,21.594    c0,15.931-0.037,96.291-0.111,120.763c-0.019,17.663,14.257,31.913,31.807,31.913c17.607,0.046,31.959-14.221,32.017-31.838    c0-7.487,0-78.252,0.075-113.333c9.348-12.773,27.425-37.461,45.803-62.526v152.555c0,34.685,4.457,63.081,22.084,89.011    c53.385,77.847,222.397,324.658,233.119,340.459c13.167,19.375,39.464,24.38,58.84,11.222    c19.337-13.167,24.341-39.541,11.229-58.793c-3.239-4.762-39.198-57.272-85.139-124.311h226.97    c10.785,0,19.529-8.743,19.529-19.529V523.21C746.675,512.425,737.932,503.682,727.147,503.682z M518.279,472.97v30.712h-57.772    c-10.785,0-19.528,8.743-19.528,19.529v86.054c-6.422-9.367-12.856-18.752-19.258-28.085V267.712    c41.493,60.346,105.285,153.169,130.768,190.258H533.28C524.996,457.97,518.279,464.686,518.279,472.97z M637.288,503.682h-89.009    V487.97h89.009V503.682z"/>
	</g>
</g>
<g>
</g>
<g>
</g>
<g>
</g>
<g>
</g>
<g>
</g>
<g>
</g>
<g>
</g>
<g>
</g>
<g>
</g>
<g>
</g>
<g>
</g>
<g>
</g>
<g>
</g>
<g>
</g>
<g>
</g>
</svg>