<?xml version="1.0" encoding="iso-8859-1"?>
<!-- Generator: Adobe Illustrator 16.0.0, SVG Export Plug-In . SVG Version: 6.00 Build 0)  -->
<!DOCTYPE svg PUBLIC "-//W3C//DTD SVG 1.1//EN" "http://www.w3.org/Graphics/SVG/1.1/DTD/svg11.dtd">
<svg xmlns="http://www.w3.org/2000/svg" xmlns:xlink="http://www.w3.org/1999/xlink" version="1.1" id="Capa_1" x="0px" y="0px" width="512px" height="512px" viewBox="0 0 42.048 42.048" style="enable-background:new 0 0 42.048 42.048;" xml:space="preserve">
<g>
	<path d="M41.614,15.936c-4.915,0-9.83,0-14.744,0c-0.22,0-0.439,0-0.659,0c-1.481-4.564-2.966-9.128-4.448-13.692   c-0.096-0.292-0.19-0.585-0.286-0.878c-0.009-0.093-0.054-0.167-0.114-0.228c-0.002-0.001-0.003-0.003-0.005-0.004   c-0.031-0.03-0.064-0.055-0.104-0.076c-0.024-0.014-0.048-0.025-0.073-0.034c-0.021-0.007-0.041-0.011-0.062-0.015   c-0.034-0.007-0.066-0.012-0.102-0.011c-0.024,0-0.047,0.004-0.071,0.007c-0.032,0.005-0.062,0.012-0.092,0.022   c-0.018,0.006-0.035,0.015-0.052,0.024c-0.125,0.061-0.22,0.167-0.232,0.314c-1.513,4.655-3.024,9.309-4.536,13.963   c-0.066,0.202-0.132,0.404-0.197,0.607c-4.806,0-9.613,0-14.417,0c-0.329,0-0.658,0-0.986,0c-0.479,0-0.572,0.588-0.227,0.839   c3.976,2.889,7.952,5.776,11.928,8.666c0.166,0.12,0.332,0.239,0.497,0.36c-1.487,4.577-2.975,9.155-4.461,13.732   c-0.101,0.312-0.204,0.625-0.305,0.938c-0.116,0.356,0.339,0.742,0.661,0.508c3.976-2.889,7.953-5.776,11.929-8.666   c0.19-0.139,0.381-0.275,0.571-0.414c3.899,2.834,7.8,5.667,11.7,8.501c0.267,0.192,0.531,0.387,0.799,0.579   c0.32,0.234,0.775-0.15,0.661-0.508c-1.521-4.676-3.038-9.35-4.558-14.022c-0.071-0.216-0.141-0.433-0.211-0.647   c3.875-2.816,7.751-5.632,11.627-8.449c0.267-0.193,0.531-0.387,0.797-0.58C42.186,16.524,42.093,15.936,41.614,15.936z    M25.145,15.569c0.103,0.312,0.203,0.625,0.306,0.938c0.062,0.192,0.227,0.331,0.434,0.331c4.784,0,9.566,0,14.35,0   c-0.026,0.019-0.054,0.039-0.079,0.058L24.476,19.14l-2.849,2.655l0.022-0.1l-0.043,0.025l1.893-3.181L21.402,4.049   C22.65,7.888,23.897,11.728,25.145,15.569z M16.162,16.839c0.207,0,0.372-0.139,0.434-0.331c1.35-4.154,2.699-8.309,4.048-12.463   L18.548,18.54l2.139,3.595l-3.181-3.276L1.878,16.886c-0.021-0.015-0.042-0.031-0.064-0.046c4.455,0,8.909,0,13.362,0   C15.505,16.839,15.834,16.839,16.162,16.839z M3.038,17.729l13.111,5.888l3.975-0.992l-3.954,2.41l-6.991,14.3   c1.369-4.215,2.739-8.429,4.107-12.643c0.101-0.312,0.204-0.625,0.305-0.938c0.066-0.203-0.047-0.392-0.207-0.508   C9.936,22.74,6.487,20.235,3.038,17.729z M21.251,30.96c-0.117-0.085-0.337-0.085-0.454,0c-3.574,2.599-7.149,5.193-10.724,7.79   l10.235-11.131l0.797-3.525l0.712,3.84l10.034,10.729c-3.268-2.374-6.534-4.747-9.803-7.122   C21.783,31.348,21.516,31.153,21.251,30.96z M28.661,25.245c-0.16,0.116-0.273,0.304-0.207,0.508   c1.469,4.519,2.936,9.034,4.403,13.552l-7.15-14.317l-3.126-2.076l3.251,0.991l13.134-6.143c-3.169,2.302-6.338,4.604-9.506,6.906   C29.193,24.858,28.926,25.053,28.661,25.245z" fill="#ed5565"/>
</g>
<g>
</g>
<g>
</g>
<g>
</g>
<g>
</g>
<g>
</g>
<g>
</g>
<g>
</g>
<g>
</g>
<g>
</g>
<g>
</g>
<g>
</g>
<g>
</g>
<g>
</g>
<g>
</g>
<g>
</g>
</svg>
